<svg width="24" height="24" viewBox="0 0 105 100" version="1.1" xmlns="http://www.w3.org/2000/svg" xmlns:xlink="http://www.w3.org/1999/xlink" xml:space="preserve" xmlns:serif="http://www.serif.com/" style="fill-rule:evenodd;clip-rule:evenodd;stroke-linejoin:round;stroke-miterlimit:2;"><path d="M63.542,94.793l-25,-0.001c-22.625,0.001 -32.292,-9.666 -32.292,-32.291l0,-25c0,-22.625 9.667,-32.292 32.292,-32.292l20.833,0c1.708,0 3.125,1.417 3.125,3.125c0,1.709 -1.417,3.125 -3.125,3.125l-20.833,0c-19.209,0 -26.042,6.834 -26.042,26.042l0,25c0,19.208 6.833,26.042 26.042,26.042l25,-0.001c19.208,0.001 26.041,-6.833 26.041,-26.041l0,-20.834c0,-1.708 1.417,-3.124 3.125,-3.124c1.709,-0 3.125,1.416 3.125,3.125l0,20.833c0,22.625 -9.666,32.292 -32.291,32.292Z" style="fill:#f9f9f9;fill-rule:nonzero;"/><path d="M92.708,44.793l-16.666,-0c-14.25,-0 -19.792,-5.542 -19.792,-19.792l0,-16.667c0,-1.25 0.75,-2.416 1.917,-2.875c1.166,-0.5 2.5,-0.208 3.416,0.667l33.334,33.333c0.875,0.875 1.166,2.25 0.666,3.417c-0.5,1.167 -1.625,1.917 -2.875,1.917Zm-30.208,-28.917l0,9.125c0,10.75 2.792,13.542 13.542,13.542l9.125,-0l-22.667,-22.667Z" style="fill:#f9f9f9;fill-rule:nonzero;"/><path d="M55.208,57.293l-25,-0c-1.708,-0 -3.125,-1.417 -3.125,-3.125c0,-1.709 1.417,-3.125 3.125,-3.125l25,-0c1.709,-0 3.125,1.416 3.125,3.125c0,1.708 -1.416,3.125 -3.125,3.125Z" style="fill:#f9f9f9;fill-rule:nonzero;"/><path d="M46.875,73.959l-16.667,0c-1.708,0 -3.125,-1.416 -3.125,-3.125c0,-1.708 1.417,-3.125 3.125,-3.125l16.667,0c1.708,0 3.125,1.417 3.125,3.125c0,1.709 -1.417,3.125 -3.125,3.125Z" style="fill:#f9f9f9;fill-rule:nonzero;"/></svg>