<?xml version="1.0" encoding="UTF-8" standalone="no"?><!DOCTYPE svg PUBLIC "-//W3C//DTD SVG 1.1//EN" "http://www.w3.org/Graphics/SVG/1.1/DTD/svg11.dtd"><svg width="100%" height="100%" viewBox="0 0 3252 1372" version="1.1" xmlns="http://www.w3.org/2000/svg" xmlns:xlink="http://www.w3.org/1999/xlink" xml:space="preserve" xmlns:serif="http://www.serif.com/" style="fill-rule:evenodd;clip-rule:evenodd;stroke-linejoin:round;stroke-miterlimit:2;"><rect id="V2" x="0" y="0" width="3251.22" height="1371.85" style="fill:none;"/><g><path d="M459.262,755.097l3.226,-13.78l238.254,0c59.492,0 112.52,-13.266 159.085,-39.8c46.564,-26.533 85.934,-61.235 118.108,-104.104c32.175,-42.869 56.72,-89.429 73.634,-139.68c16.914,-50.25 25.371,-99.289 25.371,-147.116c0,-25.663 -2.672,-53.949 -8.017,-84.857c-5.345,-30.907 -15.26,-60.307 -29.746,-88.198c-14.486,-27.892 -34.852,-50.777 -61.098,-68.658c-26.246,-17.88 -60.367,-26.82 -102.361,-26.82l-178.202,-0l-299.755,1284.76l172.036,0l0,13.779l-481.47,0l-0,-13.779l143.206,0l299.756,-1284.76l-154.252,-0l-0,-13.78l498.681,0c76.406,0 144.209,10.403 203.41,31.209c59.2,20.806 105.714,53.276 139.543,97.412c33.828,44.136 50.743,101.199 50.743,171.19c-0,87.487 -22.893,163.167 -68.678,227.038c-45.786,63.87 -111.256,113.162 -196.411,147.875c-85.155,34.712 -186.349,52.069 -303.583,52.069l-241.48,-0Z" style="fill:#ed7bab;fill-rule:nonzero;"/><path d="M1738.37,1337.89c2.199,-1.492 4.797,-3.197 7.907,-5.144c30.808,-19.291 36.643,4.536 -7.907,5.144Z" style="fill:#ed7bab;"/><path d="M1321.88,958.862c0.061,-0.156 -36.853,135.523 -40.504,149.043l-7.915,0c11.474,-45.894 27.614,-95.576 48.419,-149.043Z" style="fill:#ed7bab;"/><path d="M1592.99,541.294c7.02,-5.654 6.67,4.603 13.825,-0.4c36.553,-25.563 57.462,-21.782 95.373,-21.782c50.743,-0 88.8,12.102 114.172,36.307c25.371,24.205 40.149,56.138 44.332,95.799c4.183,39.662 -0.534,83.114 -14.149,130.357l-140.828,491.587c-1.167,4.083 -2.187,8.895 -3.062,14.436c-0.875,5.54 -1.312,10.644 -1.312,15.31c-0,23.33 11.76,34.995 35.282,34.995c0.59,0 1.172,-0.004 1.745,-0.012c-19.869,13.479 -7.238,9.56 -46.097,9.56c-40.827,0 -55.991,1.192 -81.07,-17.764c-25.08,-18.955 -37.62,-45.056 -37.62,-78.301c-0,-9.332 1.312,-19.977 3.937,-31.933c2.624,-11.957 5.978,-25.226 10.061,-39.807l110.235,-377.948c14.772,-49.96 24.929,-93.888 30.47,-131.786c5.541,-37.898 3.547,-67.438 -5.981,-88.622c-9.528,-21.184 -30.13,-31.776 -61.808,-31.776c-25.399,-0 -24.116,-25.699 -53.785,-3.173c-3.054,-3.213 -11.328,-1.96 -13.72,-5.047Z" style="fill:#ed7bab;"/><path d="M1281.38,1107.9c3.651,-13.52 -61.241,232.718 -61.241,232.718l-144.356,0l347.902,-1298.54l-142.305,-0l0,-13.78l288.71,0l-248.024,930.09c-0.06,0.156 -0.121,0.312 -0.182,0.468c-20.805,53.467 -36.945,103.149 -48.419,149.043l7.915,0Z" style="fill:#ed7bab;"/><path d="M2120.83,1347.07c-77.372,-0 -128.49,-14.08 -163.586,-64.34c-35.095,-50.26 -52.643,-119.909 -52.643,-208.946c0,-67.074 12.396,-133.419 37.189,-199.035c24.793,-65.616 57.943,-125.253 99.449,-178.913c41.507,-53.659 87.438,-96.674 137.794,-129.044c50.356,-32.371 89.751,-49.371 139.446,-39.159c75.937,15.605 54.816,32.271 76.859,63.609c25.362,36.055 33.042,162.997 40.438,201.778c7.395,38.782 45.726,-63.756 45.726,-20.194c-0,39.078 1.182,81.813 -11.524,124.67c-7.388,24.92 -90.428,167.162 -155.549,282.122c-43.479,76.754 -104.348,127.818 -110.471,131.311c-31.013,17.694 -47.549,36.141 -83.128,36.141Zm34.274,-16.454c34.211,-0 26.697,-4.687 55.863,-30.486c194.382,-171.948 269.217,-568.692 181.105,-717.1c-13.823,-23.283 -12.607,-43.701 -43.893,-43.701c-30.33,-0 -60.417,13.168 -90.263,39.506c-29.847,26.337 -57.941,61.326 -84.283,104.965c-26.342,43.639 -49.77,91.846 -70.284,144.622c-20.514,52.775 -36.604,105.94 -48.269,159.494c-11.665,53.555 -17.497,103.079 -17.497,148.572c-0,65.872 10.692,114.694 32.076,146.468c21.385,31.773 49.866,47.66 85.445,47.66Zm340.647,16.834c-40.828,0 -60.098,-0.412 -79.346,-22.575c-19.247,-22.164 -28.871,-50.743 -28.871,-85.739c0,-9.915 0.292,-18.81 0.875,-26.683c0.584,-7.874 1.458,-14.728 2.625,-20.56l21.886,-121.103l41.133,-131.532l23.635,-146.447l62.075,-257.078l147.855,0l-196.82,739.479c-2.333,8.748 -3.5,18.08 -3.5,27.996c0,9.915 2.77,18.322 8.311,25.221c5.541,6.899 15.24,13.938 27.559,10.348c25.861,-7.537 11.661,8.673 -27.417,8.673Z" style="fill:#ed7bab;fill-rule:nonzero;"/><path d="M2876.03,1350.61c-35.519,6.788 -65.616,1.82 -88.363,-9.553c-22.747,-11.374 -39.515,-26.247 -50.305,-44.619c-10.791,-18.372 -16.186,-37.474 -16.186,-57.305c0,-9.332 1.458,-22.455 4.375,-39.369c2.916,-16.915 6.707,-34.12 11.373,-51.618l213.471,-787.392l139.98,0l-248.356,902.521c-1.804,6.005 -3.582,12.945 -5.331,20.819c-1.75,7.874 -2.625,15.894 -2.625,24.059c0,21.198 18.081,31.797 54.243,31.797c29.144,-0 17.677,4.936 -12.276,10.66Zm-148.73,-800.8l0,-14.08l472.435,0l0,14.08l-472.435,0Z" style="fill:#ed7bab;fill-rule:nonzero;"/></g><g transform="matrix(1749.76,0,0,1749.76,110.876,1340.62)"><path d="M0.172,-0.335l0.002,-0.008l0.136,0c0.034,0 0.064,-0.007 0.091,-0.022c0.027,-0.015 0.049,-0.035 0.067,-0.06c0.019,-0.024 0.033,-0.051 0.043,-0.08c0.009,-0.028 0.014,-0.056 0.014,-0.084c0,-0.014 -0.002,-0.03 -0.005,-0.048c-0.003,-0.018 -0.008,-0.035 -0.017,-0.051c-0.008,-0.015 -0.02,-0.029 -0.034,-0.039c-0.015,-0.01 -0.035,-0.015 -0.059,-0.015l-0.102,-0l-0.171,0.734l0.098,0l0,0.008l-0.275,0l0,-0.008l0.082,0l0.171,-0.734l-0.088,-0l0,-0.008l0.285,0c0.044,0 0.082,0.006 0.116,0.018c0.034,0.012 0.061,0.03 0.08,0.056c0.019,0.025 0.029,0.057 0.029,0.097c0,0.05 -0.013,0.094 -0.039,0.13c-0.026,0.037 -0.064,0.065 -0.112,0.085c-0.049,0.019 -0.107,0.029 -0.174,0.029l-0.138,0Z" style="fill:#e42278;fill-rule:nonzero;"/></g><g transform="matrix(1749.76,0,0,1749.76,1000.63,1340.62)"><path d="M0.016,-0l0.199,-0.742l-0.082,-0l0,-0.008l0.165,0l-0.2,0.75l-0.082,-0Zm0.362,0.01c-0.023,0 -0.042,-0.005 -0.056,-0.016c-0.014,-0.011 -0.022,-0.026 -0.022,-0.045c0,-0.005 0.001,-0.011 0.003,-0.018c0.001,-0.007 0.003,-0.015 0.005,-0.023l0.063,-0.216c0.009,-0.029 0.015,-0.054 0.018,-0.075c0.003,-0.022 0.002,-0.039 -0.004,-0.051c-0.005,-0.012 -0.017,-0.018 -0.035,-0.018c-0.017,-0 -0.036,0.009 -0.056,0.027c-0.021,0.018 -0.041,0.042 -0.062,0.072c-0.02,0.03 -0.039,0.065 -0.056,0.103c-0.018,0.038 -0.032,0.077 -0.043,0.117l-0.004,-0c0.006,-0.026 0.016,-0.055 0.027,-0.085c0.012,-0.031 0.026,-0.061 0.042,-0.09c0.016,-0.03 0.033,-0.057 0.052,-0.081c0.019,-0.025 0.039,-0.044 0.06,-0.059c0.021,-0.014 0.042,-0.022 0.064,-0.022c0.029,0 0.051,0.007 0.065,0.021c0.015,0.014 0.023,0.032 0.025,0.055c0.003,0.023 0,0.047 -0.008,0.074l-0.08,0.281c-0.001,0.003 -0.001,0.006 -0.002,0.009c-0,0.003 -0.001,0.006 -0.001,0.008c0,0.014 0.007,0.02 0.021,0.02c0.026,0 0.05,-0.012 0.07,-0.035c0.021,-0.024 0.042,-0.064 0.062,-0.119l0.008,0.003c-0.014,0.038 -0.029,0.069 -0.043,0.093c-0.015,0.024 -0.031,0.042 -0.049,0.053c-0.018,0.011 -0.039,0.017 -0.064,0.017Z" style="fill:#e42278;fill-rule:nonzero;"/></g><g transform="matrix(1749.76,0,0,1749.76,1803.21,1340.62)"><path d="M0.157,0.01c-0.044,0 -0.076,-0.014 -0.096,-0.043c-0.02,-0.029 -0.03,-0.069 -0.03,-0.119c-0,-0.039 0.007,-0.077 0.021,-0.114c0.014,-0.038 0.033,-0.072 0.057,-0.102c0.024,-0.031 0.05,-0.056 0.079,-0.074c0.028,-0.019 0.057,-0.028 0.086,-0.028c0.025,0 0.043,0.007 0.055,0.021c0.013,0.014 0.021,0.032 0.025,0.054c0.004,0.022 0.007,0.046 0.007,0.071c-0,0.022 -0.003,0.046 -0.007,0.071c-0.004,0.025 -0.011,0.05 -0.019,0.075c-0.009,0.025 -0.019,0.049 -0.031,0.071c-0.012,0.023 -0.025,0.043 -0.04,0.06c-0.015,0.018 -0.032,0.032 -0.05,0.042c-0.017,0.01 -0.036,0.015 -0.057,0.015Zm0.017,-0.016c0.02,0 0.038,-0.006 0.056,-0.02c0.018,-0.013 0.034,-0.031 0.049,-0.054c0.015,-0.022 0.029,-0.047 0.04,-0.075c0.011,-0.028 0.019,-0.056 0.026,-0.086c0.006,-0.029 0.009,-0.057 0.009,-0.083c-0,-0.025 -0.002,-0.048 -0.006,-0.068c-0.004,-0.021 -0.012,-0.037 -0.022,-0.048c-0.01,-0.012 -0.024,-0.018 -0.042,-0.018c-0.017,0 -0.034,0.008 -0.051,0.023c-0.017,0.015 -0.033,0.035 -0.048,0.06c-0.015,0.025 -0.029,0.052 -0.041,0.082c-0.011,0.03 -0.02,0.061 -0.027,0.091c-0.007,0.031 -0.01,0.059 -0.01,0.085c-0,0.038 0.006,0.066 0.018,0.084c0.012,0.018 0.029,0.027 0.049,0.027Zm0.201,0.016c-0.023,-0 -0.041,-0.006 -0.052,-0.019c-0.011,-0.013 -0.016,-0.029 -0.016,-0.049c-0,-0.006 0,-0.011 0,-0.015c0.001,-0.005 0.001,-0.009 0.002,-0.012l0.012,-0.069l0.024,-0.075l0.013,-0.084l0.036,-0.147l0.084,-0l-0.112,0.423c-0.001,0.005 -0.002,0.01 -0.002,0.016c-0,0.005 0.001,0.01 0.005,0.014c0.003,0.004 0.008,0.006 0.015,0.006c0.018,-0 0.034,-0.005 0.049,-0.016c0.015,-0.01 0.029,-0.027 0.043,-0.05c0.013,-0.023 0.027,-0.052 0.041,-0.089l0.007,0.003c-0.014,0.038 -0.028,0.069 -0.043,0.093c-0.014,0.024 -0.03,0.042 -0.047,0.053c-0.017,0.011 -0.037,0.017 -0.059,0.017Z" style="fill:#e42278;fill-rule:nonzero;"/></g><g transform="matrix(1749.76,0,0,1749.76,2589.16,1340.62)"><path d="M0.137,0.01c-0.021,0 -0.038,-0.003 -0.051,-0.01c-0.013,-0.006 -0.022,-0.015 -0.028,-0.025c-0.007,-0.011 -0.01,-0.022 -0.01,-0.033c0,-0.005 0.001,-0.013 0.003,-0.023c0.002,-0.009 0.004,-0.019 0.006,-0.029l0.122,-0.45l0.08,0l-0.142,0.516c-0.001,0.003 -0.002,0.007 -0.003,0.012c-0.001,0.004 -0.001,0.009 -0.001,0.013c-0,0.013 0.01,0.019 0.031,0.019c0.017,-0 0.032,-0.004 0.048,-0.011c0.015,-0.007 0.029,-0.018 0.043,-0.032c0.014,-0.014 0.026,-0.031 0.039,-0.052c0.012,-0.02 0.023,-0.044 0.033,-0.07l0.008,0.002c-0.014,0.037 -0.03,0.068 -0.048,0.094c-0.017,0.026 -0.037,0.045 -0.058,0.059c-0.022,0.013 -0.046,0.02 -0.072,0.02Zm-0.085,-0.462l-0,-0.008l0.27,0l-0,0.008l-0.27,0Z" style="fill:#e42278;fill-rule:nonzero;"/></g><g transform="matrix(1749.76,0,0,1749.76,3153.77,1340.62)"></g></svg>