<?xml version="1.0" encoding="UTF-8" standalone="no"?><!DOCTYPE svg PUBLIC "-//W3C//DTD SVG 1.1//EN" "http://www.w3.org/Graphics/SVG/1.1/DTD/svg11.dtd"><svg width="200" height="80" viewBox="0 0 1000 417" version="1.1" xmlns="http://www.w3.org/2000/svg" xmlns:xlink="http://www.w3.org/1999/xlink" xml:space="preserve" xmlns:serif="http://www.serif.com/" style="fill-rule:evenodd;clip-rule:evenodd;stroke-linejoin:round;stroke-miterlimit:2;"><rect id="signature" x="0" y="0" width="1000" height="416.326" style="fill:none;"/><g><path d="M91.158,222.328c-14.182,-0 -21.272,-5.032 -25.847,-9.607c-3.202,-2.973 -7.777,-9.835 -7.777,-12.123c0,-2.287 15.783,-32.708 26.076,-50.321c34.081,-57.411 66.789,-96.067 100.184,-117.796c12.809,-8.006 25.16,-13.038 33.166,-13.038c11.665,0.915 16.698,6.176 16.698,22.644c-1.144,33.853 -14.868,71.593 -43.459,114.595c-21.273,31.107 -48.263,52.837 -78.227,62.901c-5.261,1.83 -13.724,2.745 -20.814,2.745Zm-75.253,87.833c1.144,-0 2.287,-1.83 9.149,-24.932c16.698,-51.465 26.533,-76.854 29.507,-78.226c1.83,-0 4.574,11.436 23.102,17.612c5.26,1.83 10.521,2.745 16.011,2.745c7.777,-0 18.756,-0.915 28.82,-4.803c33.624,-12.581 60.385,-40.486 86.689,-85.775c17.841,-31.336 29.507,-70.906 29.507,-93.551c-0,-18.527 -7.32,-28.363 -21.044,-28.363c-23.33,0 -63.587,28.363 -97.668,73.194c-15.096,19.443 -28.82,40.028 -42.773,64.274c-4.346,7.777 -8.005,13.724 -8.463,13.724c0,-3.202 47.576,-101.099 60.614,-124.43c3.66,-6.405 5.261,-9.607 5.261,-11.665c-0,-1.83 -1.373,-1.83 -4.117,-2.059c-2.745,0 -4.346,1.83 -8.235,9.149c-12.58,24.475 -52.608,110.706 -61.529,133.58l-7.319,18.298c-0.229,-3.66 -0.229,-11.208 -2.745,-11.208c-1.143,0.229 -1.372,0.915 -1.372,3.889c-0,5.032 1.601,13.037 1.601,13.266c-0.229,1.372 -37.283,97.211 -37.283,112.536c-0,1.144 0.228,1.83 0.686,2.059l1.601,0.686Z" style="fill:#fff;fill-rule:nonzero;"/><path d="M195.002,224.615c-1.373,0 -1.373,-0.229 -1.373,-1.143c0,-2.745 6.405,-11.895 13.267,-18.985c8.92,-8.463 10.293,-10.522 16.697,-11.208c5.261,-0 8.463,8.006 8.463,8.234c-0.228,1.601 -16.24,13.495 -25.389,18.07c-6.633,3.66 -10.064,5.032 -11.665,5.032Zm49.635,10.064c4.117,0 9.606,-1.372 16.468,-4.574c13.038,-6.405 31.108,-20.357 31.337,-23.788c-0,-0.687 -0.229,-1.144 -0.687,-1.144c-0.686,0 -1.601,0.686 -2.973,2.059c-4.575,4.574 -21.272,15.553 -29.964,19.671c-5.718,2.973 -10.293,4.345 -13.724,4.345c-5.947,0 -8.692,-5.718 -8.692,-11.436c0,-6.862 6.862,-16.698 6.862,-20.815c-0.229,-1.372 -0.457,-2.287 -1.372,-2.287l-1.144,0.229c-2.973,-0 -4.574,-11.894 -14.41,-11.894c-2.058,-0 -4.575,0.686 -7.548,2.058c-10.75,4.804 -30.879,28.134 -30.879,36.826c0,3.202 2.745,5.718 6.405,5.718c11.894,0 36.825,-21.043 39.113,-21.043l0.229,0.229c-0,0.228 -2.288,5.032 -2.288,10.979c0,6.862 2.974,14.867 13.267,14.867Z" style="fill:#fff;fill-rule:nonzero;"/><path d="M252.185,315.422c1.372,-0 2.973,-0.687 3.431,-1.83c3.202,-9.378 2.287,-18.985 8.463,-36.826c12.351,-34.996 32.022,-83.03 40.028,-102.243c10.064,-24.017 22.187,-47.347 31.565,-67.933l39.57,-2.516c6.634,-0.458 14.868,-0.915 24.017,-1.144c-29.964,64.274 -51.236,113.451 -65.646,162.857c-3.202,11.436 -7.09,21.958 -7.777,30.879c0,2.516 1.144,3.431 2.516,3.431c1.601,-0 3.431,-1.144 3.66,-2.288c0.915,-8.463 1.83,-19.213 5.261,-31.336c10.522,-36.826 31.565,-86.46 53.066,-132.435c5.032,-10.98 9.835,-21.273 15.325,-31.565c40.256,-1.83 94.008,-4.346 118.711,-4.346c6.633,0.228 8.006,0.686 10.522,0.686l0.686,-0.229l0,0.229c0,0.915 1.144,1.601 2.516,1.601c2.974,-0.457 4.804,-1.83 4.804,-3.66c-0,-2.745 -5.49,-3.431 -15.554,-3.431c-23.788,0 -79.141,3.889 -120.542,6.405c11.208,-22.187 23.102,-43.688 37.055,-65.646c0.915,-1.601 1.372,-2.974 1.372,-3.889c0,-1.601 -1.143,-2.287 -2.516,-2.287c-1.144,0 -2.745,0.686 -3.888,1.83c-5.719,5.947 -12.352,18.527 -15.554,24.017c-7.319,13.495 -15.096,29.277 -23.102,46.432c-42.544,2.059 -32.937,1.83 -63.13,3.66c6.176,-10.522 9.836,-15.554 14.182,-25.161c3.659,-7.548 9.606,-17.383 13.495,-26.761c0.915,-1.83 1.372,-4.346 1.372,-6.405c0,-2.744 -0.457,-3.888 -2.287,-4.117c-3.202,0 -4.804,5.261 -7.091,10.293c-11.437,21.73 -21.501,45.975 -25.847,52.608l-78.912,4.346l-1.372,-1.601l-5.032,-0.229c-5.947,0 -13.724,0.915 -18.299,1.83c-2.973,0.687 -4.117,2.745 -4.117,4.346c-0,2.745 1.83,2.974 4.803,2.974c8.463,-0 21.73,-2.059 22.416,-2.059c48.262,-4.346 27.219,-2.973 78.226,-6.862l-3.202,3.431c-0.458,0.458 -0.686,0.915 -0.686,1.373c-0,0.914 1.143,1.829 2.058,1.829l0.229,-0.228c-0.457,1.83 -73.423,168.575 -76.625,200.368l-0,0.229c-0,0.915 0.915,1.373 1.83,1.373Z" style="fill:#fff;fill-rule:nonzero;"/><path d="M388.737,224.615c-1.372,0 -1.372,-0.229 -1.372,-1.143c0,-2.745 6.405,-11.895 13.267,-18.985c8.92,-8.463 10.292,-10.522 16.697,-11.208c5.261,-0 8.463,8.006 8.463,8.234c-0.229,1.601 -16.24,13.495 -25.389,18.07c-6.633,3.66 -10.064,5.032 -11.666,5.032Zm49.635,10.064c4.117,0 9.607,-1.372 16.469,-4.574c13.038,-6.405 31.107,-20.357 31.336,-23.788c0,-0.687 -0.229,-1.144 -0.686,-1.144c-0.686,0 -1.601,0.686 -2.974,2.059c-4.574,4.574 -21.272,15.553 -29.963,19.671c-5.719,2.973 -10.293,4.345 -13.724,4.345c-5.947,0 -8.692,-5.718 -8.692,-11.436c-0,-6.862 6.862,-16.698 6.862,-20.815c-0.229,-1.372 -0.458,-2.287 -1.373,-2.287l-1.143,0.229c-2.974,-0 -4.575,-11.894 -14.41,-11.894c-2.059,-0 -4.575,0.686 -7.548,2.058c-10.751,4.804 -30.879,28.134 -30.879,36.826c-0,3.202 2.745,5.718 6.404,5.718c11.894,0 36.826,-21.043 39.113,-21.043l0.229,0.229c0,0.228 -2.287,5.032 -2.287,10.979c-0,6.862 2.973,14.867 13.266,14.867Z" style="fill:#fff;fill-rule:nonzero;"/><path d="M469.022,248.403c3.889,0 29.964,-51.464 35.911,-51.464c2.059,-0 4.117,10.521 12.123,14.41c1.144,0.686 2.973,0.915 5.261,0.915c7.548,-0 19.213,-2.516 23.33,-6.862l-0.228,-0.229c-0,0 -11.437,4.117 -20.586,4.117c-2.974,0 -5.49,-0.229 -6.862,-0.915c-5.718,-2.516 -10.064,-16.697 -12.58,-16.697c-2.288,-0 -6.176,2.058 -18.756,22.644c-6.405,10.293 -12.352,21.272 -12.352,21.272l-0.229,-0.228c0,-3.203 14.182,-28.134 27.906,-49.635c1.372,-2.059 2.744,-2.287 4.117,-4.346c0.686,-0.915 1.143,-2.059 1.143,-2.745c0,-2.058 -1.372,-3.431 -3.202,-3.431c-0.915,0 -2.287,0.686 -3.431,2.059c-2.973,3.202 -33.623,54.209 -33.623,67.933c-0,2.059 1.143,3.202 2.058,3.202Z" style="fill:#fff;fill-rule:nonzero;"/><path d="M540.158,224.615c-1.373,0 -1.373,-0.229 -1.373,-1.143c0,-2.745 6.405,-11.895 13.267,-18.985c8.92,-8.463 10.293,-10.522 16.697,-11.208c5.261,-0 8.463,8.006 8.463,8.234c-0.228,1.601 -16.24,13.495 -25.389,18.07c-6.633,3.66 -10.064,5.032 -11.665,5.032Zm49.635,10.064c4.117,0 9.606,-1.372 16.468,-4.574c13.038,-6.405 31.108,-20.357 31.336,-23.788c0,-0.687 -0.228,-1.144 -0.686,-1.144c-0.686,0 -1.601,0.686 -2.973,2.059c-4.575,4.574 -21.272,15.553 -29.964,19.671c-5.718,2.973 -10.293,4.345 -13.724,4.345c-5.947,0 -8.692,-5.718 -8.692,-11.436c0,-6.862 6.862,-16.698 6.862,-20.815c-0.229,-1.372 -0.457,-2.287 -1.372,-2.287l-1.144,0.229c-2.973,-0 -4.575,-11.894 -14.41,-11.894c-2.059,-0 -4.575,0.686 -7.548,2.058c-10.751,4.804 -30.879,28.134 -30.879,36.826c0,3.202 2.745,5.718 6.405,5.718c11.894,0 36.825,-21.043 39.113,-21.043l0.228,0.229c0,0.228 -2.287,5.032 -2.287,10.979c0,6.862 2.974,14.867 13.267,14.867Z" style="fill:#fff;fill-rule:nonzero;"/><path d="M630.964,256.18l-2.058,-0.229c-4.118,-0.915 -5.49,-2.744 -5.49,-5.26c0,-6.862 9.607,-14.639 15.096,-18.528c6.862,-4.346 14.182,-8.234 19.214,-10.521l1.143,-0.458c4.575,1.601 8.235,5.719 8.235,10.751c-0,9.378 -22.873,24.245 -36.14,24.245Zm0.458,1.601c12.809,0 32.708,-11.665 37.74,-20.128c1.601,-2.745 2.288,-5.261 2.288,-7.777c-0,-4.575 -2.516,-8.463 -6.176,-11.894c12.351,-5.49 30.879,-9.607 42.087,-11.665c1.143,-0.458 1.829,-0.687 1.829,-0.915l-0.457,-0.229l-1.601,0.229c-11.894,1.372 -33.624,8.234 -42.544,11.894c-1.601,-1.144 -23.56,-8.921 -23.788,-15.096c-0,-10.98 26.761,-19.671 38.427,-20.815c0.686,-0 0.914,0.229 0.914,0.686c-0.457,2.059 -2.287,4.117 -2.287,6.862c0,1.144 0.229,2.059 1.144,2.059c2.058,-0 10.75,-6.862 10.75,-10.979c0,-1.373 -0.686,-2.517 -1.83,-3.66c-1.143,-1.601 -2.058,-2.059 -4.346,-2.059c-11.207,0 -49.177,10.064 -49.177,28.363c0.229,7.091 16.011,13.724 22.416,16.926c0.457,0.229 0.457,0.458 0.457,0.686c0,0.458 -0.228,0.458 -0.228,0.686c-5.261,2.745 -12.123,6.405 -18.756,10.98c-6.176,4.117 -16.012,11.207 -16.012,19.213c0.458,5.261 4.118,6.176 9.15,6.633Z" style="fill:#fff;fill-rule:nonzero;"/><path d="M703.93,224.615c-1.373,0 -1.373,-0.229 -1.373,-1.143c0,-2.745 6.405,-11.895 13.267,-18.985c8.92,-8.463 10.292,-10.522 16.697,-11.208c5.261,-0 8.463,8.006 8.463,8.234c-0.229,1.601 -16.24,13.495 -25.389,18.07c-6.633,3.66 -10.064,5.032 -11.665,5.032Zm49.634,10.064c4.117,0 9.607,-1.372 16.469,-4.574c13.038,-6.405 31.107,-20.357 31.336,-23.788c0,-0.687 -0.229,-1.144 -0.686,-1.144c-0.686,0 -1.601,0.686 -2.974,2.059c-4.574,4.574 -21.272,15.553 -29.963,19.671c-5.719,2.973 -10.293,4.345 -13.724,4.345c-5.947,0 -8.692,-5.718 -8.692,-11.436c-0,-6.862 6.862,-16.698 6.862,-20.815c-0.229,-1.372 -0.458,-2.287 -1.372,-2.287l-1.144,0.229c-2.974,-0 -4.575,-11.894 -14.41,-11.894c-2.059,-0 -4.575,0.686 -7.548,2.058c-10.751,4.804 -30.879,28.134 -30.879,36.826c-0,3.202 2.745,5.718 6.404,5.718c11.894,0 36.826,-21.043 39.113,-21.043l0.229,0.229c0,0.228 -2.287,5.032 -2.287,10.979c-0,6.862 2.973,14.867 13.266,14.867Z" style="fill:#fff;fill-rule:nonzero;"/><path d="M733.665,398.68c-8.006,-0 -11.437,-6.862 -11.437,-14.41c0,-22.187 23.788,-62.444 30.879,-72.051c9.835,-13.495 24.474,-31.793 40.943,-46.89c13.724,-12.351 31.793,-26.075 47.118,-33.852l0.229,-0.229c0.229,0 0.229,0.229 0.229,0.229l-1.372,5.49c-6.405,26.304 -31.794,82.572 -40.486,97.668c-15.782,27.219 -38.427,53.066 -53.523,60.385c-5.261,2.516 -9.378,3.66 -12.58,3.66Zm0.686,3.66c21.272,-0 57.183,-36.14 83.487,-95.839c15.325,-33.623 21.958,-55.582 30.421,-78.455c0,-0.686 0.458,-1.143 1.144,-1.601c15.096,-8.92 30.65,-15.554 44.374,-19.213c0.915,-0.229 1.143,-0.915 1.143,-1.373c0,-0.457 -0.457,-0.915 -1.143,-0.915l-0.686,0c-13.496,3.889 -28.134,10.979 -42.773,19.214l-0.458,-0c-0.228,-0 -0.228,-0.229 -0.228,-0.458l-0,-0.228c2.516,-8.235 5.489,-20.586 5.489,-27.22c0,-3.43 -1.144,-5.718 -4.117,-5.718c-1.83,0 -4.346,1.144 -7.319,4.804c-24.246,29.048 -39.114,43.001 -46.204,43.001c-2.288,0 -4.117,-1.144 -4.117,-3.888c-0,-8.463 13.266,-29.735 17.383,-33.853c3.66,-3.431 5.718,-7.09 5.718,-9.835c0,-2.059 -1.601,-3.431 -2.973,-3.431c-5.718,-0 -24.474,31.107 -24.474,46.204c-0,5.032 2.058,8.234 6.404,8.234c7.091,0 20.586,-9.149 41.858,-33.395c5.032,-5.947 8.234,-8.463 9.835,-8.463c1.144,0 1.602,1.144 1.602,2.974c-0,5.489 -5.261,25.16 -7.091,26.99c-37.512,21.272 -68.162,49.177 -93.094,83.716c-7.548,10.293 -29.735,47.576 -29.735,70.678c0,9.378 4.575,18.07 15.554,18.07Z" style="fill:#fff;fill-rule:nonzero;"/><path d="M889.202,224.615c-1.372,0 -1.372,-0.229 -1.372,-1.143c-0,-2.745 6.404,-11.895 13.266,-18.985c8.921,-8.463 10.293,-10.522 16.698,-11.208c5.26,-0 8.463,8.006 8.463,8.234c-0.229,1.601 -16.24,13.495 -25.39,18.07c-6.633,3.66 -10.064,5.032 -11.665,5.032Zm49.635,10.064c4.117,0 9.607,-1.372 16.468,-4.574c13.038,-6.405 31.108,-20.357 31.337,-23.788c-0,-0.687 -0.229,-1.144 -0.686,-1.144c-0.687,0 -1.602,0.686 -2.974,2.059c-4.575,4.574 -21.272,15.553 -29.964,19.671c-5.718,2.973 -10.293,4.345 -13.724,4.345c-5.947,0 -8.692,-5.718 -8.692,-11.436c0,-6.862 6.862,-16.698 6.862,-20.815c-0.228,-1.372 -0.457,-2.287 -1.372,-2.287l-1.144,0.229c-2.973,-0 -4.574,-11.894 -14.41,-11.894c-2.058,-0 -4.574,0.686 -7.548,2.058c-10.75,4.804 -30.879,28.134 -30.879,36.826c0,3.202 2.745,5.718 6.405,5.718c11.894,0 36.826,-21.043 39.113,-21.043l0.229,0.229c-0,0.228 -2.288,5.032 -2.288,10.979c0,6.862 2.974,14.867 13.267,14.867Z" style="fill:#fff;fill-rule:nonzero;"/></g></svg>